<?xml version="1.0" encoding="UTF-8"?>
<!-- Generator: Adobe Illustrator 19.0.0, SVG Export Plug-In . SVG Version: 6.00 Build 0)  -->
<svg version="1.1" id="Layer_1" xmlns="http://www.w3.org/2000/svg" xmlns:xlink="http://www.w3.org/1999/xlink" x="0px" y="0px" viewBox="-79 22.7 97 97" style="enable-background:new -79 22.7 97 97;" xml:space="preserve">
<style type="text/css">
	.st0{display:none;}
</style>
<g>
	<path class="st0" d="M-79,22.7v97h97v-97H-79z M-2.4,59.7c0,0.6,0,1.1,0,1.7c0,17.5-13.4,37.8-37.9,37.8c-7.5,0-14.5-2.2-20.4-6   c1,0.1,2.1,0.2,3.2,0.2c6.2,0,12-2.1,16.5-5.7c-5.8-0.1-10.7-3.9-12.4-9.2c0.8,0.2,1.6,0.2,2.5,0.2c1.2,0,2.4-0.2,3.5-0.5   c-6.1-1.2-10.7-6.6-10.7-13c0-0.1,0-0.1,0-0.2c1.8,1,3.9,1.6,6,1.7c-3.6-2.4-5.9-6.4-5.9-11.1c0-2.4,0.7-4.7,1.8-6.7   c6.6,8,16.4,13.3,27.5,13.9c-0.2-1-0.3-2-0.3-3c0-7.3,6-13.3,13.3-13.3c3.8,0,7.3,1.6,9.7,4.2c3-0.6,5.9-1.7,8.5-3.2   c-1,3.1-3.1,5.7-5.9,7.3c2.7-0.3,5.3-1,7.7-2.1C2.4,55.5,0.2,57.8-2.4,59.7z"/>
	<path d="M2.4,47.6c-2.6,1.5-5.4,2.6-8.5,3.2c-2.4-2.6-5.9-4.2-9.7-4.2c-7.4,0-13.3,5.9-13.3,13.3c0,1,0.1,2.1,0.3,3   c-11.1-0.6-20.9-5.8-27.5-13.9c-1.1,2-1.8,4.2-1.8,6.7c0,4.6,2.4,8.7,5.9,11.1c-2.2-0.1-4.2-0.7-6-1.7c0,0.1,0,0.1,0,0.2   c0,6.4,4.6,11.8,10.7,13c-1.1,0.3-2.3,0.5-3.5,0.5c-0.9,0-1.7-0.1-2.5-0.2c1.7,5.3,6.6,9.1,12.4,9.2c-4.6,3.6-10.3,5.7-16.5,5.7   c-1.1,0-2.1-0.1-3.2-0.2c5.9,3.8,12.9,6,20.4,6c24.5,0,37.9-20.2,37.9-37.8c0-0.6,0-1.1,0-1.7c2.6-1.9,4.9-4.2,6.6-6.9   c-2.4,1.1-5,1.8-7.7,2.1C-0.7,53.3,1.4,50.7,2.4,47.6z"/>
</g>
</svg>