<?xml version="1.0" encoding="UTF-8"?>
<!-- Generator: Adobe Illustrator 19.0.0, SVG Export Plug-In . SVG Version: 6.00 Build 0)  -->
<svg version="1.1" id="Layer_1" xmlns="http://www.w3.org/2000/svg" xmlns:xlink="http://www.w3.org/1999/xlink" x="0px" y="0px" viewBox="-79 22.7 97 97" style="enable-background:new -79 22.7 97 97;" xml:space="preserve">
<style type="text/css">
	.st0{fill:none;}
</style>
<g>
	<path class="st0" d="M-30.3,54c-9.9,0-17.9,8-17.9,17.9c0,9.9,8,17.9,17.9,17.9c9.9,0,17.9-8,17.9-17.9C-12.4,62-20.4,54-30.3,54z"/>
	<path d="M17.8,55.1H-6.6c-5.3-7.4-13.9-12.3-23.8-12.3c-9.8,0-18.5,4.9-23.8,12.3h-24.4L-79,23.4v97l0.4-54.1H-59   c-0.4,1.8-0.5,3.7-0.5,5.6c0,16.1,13,29.1,29.1,29.1c16.1,0,29.1-13,29.1-29.1c0-1.9-0.2-3.8-0.5-5.6h19.6l0.4,54.1v-97L17.8,55.1z    M-30.3,89.8c-9.9,0-17.9-8-17.9-17.9c0-9.9,8-17.9,17.9-17.9c9.9,0,17.9,8,17.9,17.9C-12.4,81.8-20.4,89.8-30.3,89.8z"/>
	<path d="M-0.6,45.1h8.1c1.5,0,2.7-1.2,2.7-2.7v-8.1c0-1.5-1.2-2.7-2.7-2.7h-8.1c-1.5,0-2.7,1.2-2.7,2.7v8.1   C-3.3,43.9-2.1,45.1-0.6,45.1z"/>
</g>
</svg>