<?xml version="1.0" encoding="UTF-8"?>
<!-- Generator: Adobe Illustrator 19.0.0, SVG Export Plug-In . SVG Version: 6.00 Build 0)  -->
<svg version="1.1" id="Layer_1" xmlns="http://www.w3.org/2000/svg" xmlns:xlink="http://www.w3.org/1999/xlink" x="0px" y="0px" viewBox="-79 22.7 97 97" style="enable-background:new -79 22.7 97 97;" xml:space="preserve">
<style type="text/css">
	.st0{display:none;fill:#EBEBEB;}
</style>
<path class="st0" d="M-79,22.7v97l48.9-0.4V84.8h-11.5v-15h11.5v-7.5c0-11.6,8.6-20.7,19.5-20.7H0.1v17h-9.5c-2.5,0-3.2,1.4-3.2,3.4  v7.9H0.1v15h-12.7v34.5l30.7,0.4v-97H-79z"/>
<path d="M-9.2,58.8h9.5v-17h-10.6c-10.9,0-19.5,9.1-19.5,20.7V70h-11.5v15h11.5v34.5l0,0.2l0.3,0l17.1-0.1V85.1H0.3v-15h-12.7v-7.9  C-12.4,60.2-11.7,58.8-9.2,58.8z"/>
</svg>